<svg width="422" height="422" viewBox="0 0 542 542" fill="none" xmlns="http://www.w3.org/2000/svg">
<path d="M250.979 541.386H251.457L254.803 541.625C252.055 541.506 249.186 541.267 246.199 540.908C246.079 540.908 245.84 540.908 245.721 540.908C247.394 541.028 249.186 541.267 250.86 541.386H250.979Z" fill="#3A3A47"/>
<path d="M212.736 535.649L215.723 536.247C215.723 536.247 215.365 536.247 215.245 536.247C214.409 536.127 213.572 535.888 212.736 535.769V535.649Z" fill="#3A3A47"/>
<path d="M235.921 539.713C239.148 540.191 242.494 540.549 245.721 540.788C245.84 540.788 245.96 540.788 246.199 540.788C242.852 540.43 239.387 540.071 236.04 539.593L235.921 539.713Z" fill="#3A3A47"/>
<path d="M215.604 536.247C215.604 536.247 215.962 536.247 216.202 536.367H216.68C219.548 537.084 222.536 537.562 225.523 538.159C225.523 538.159 225.284 538.159 225.165 538.159C221.818 537.562 218.592 536.964 215.484 536.367L215.604 536.247Z" fill="#3A3A47"/>
<path d="M225.523 538.16H225.762C228.989 538.757 232.216 539.235 235.562 539.594C232.096 539.116 228.75 538.638 225.404 538.04L225.523 538.16Z" fill="#3A3A47"/>
<path d="M291.254 536.605C289.342 536.605 287.549 536.486 285.637 536.366C285.398 536.366 285.159 536.605 284.8 536.725C286.712 536.725 288.505 536.964 290.298 536.964C295.317 537.203 300.098 537.322 304.4 537.322C304.758 537.322 305.117 537.083 305.475 536.964C301.054 536.964 296.273 536.964 291.134 536.605H291.254Z" fill="#3A3A47"/>
<path d="M262.93 534.693C262.93 534.693 262.572 534.932 262.452 535.052C269.862 535.769 277.152 536.366 284.203 536.725C284.442 536.725 284.681 536.486 285.039 536.366C277.869 536.008 270.459 535.41 262.93 534.693Z" fill="#3A3A47"/>
<path d="M215.724 528.359C208.314 527.164 201.143 525.73 194.212 524.296C194.331 524.415 194.57 524.654 194.809 524.774C201.621 526.208 208.672 527.523 215.963 528.718C215.963 528.598 215.843 528.359 215.724 528.24V528.359Z" fill="#3A3A47"/>
<path d="M262.213 534.574C254.684 533.857 247.035 533.02 239.506 531.945C239.506 532.064 239.506 532.184 239.506 532.303C247.035 533.259 254.564 534.216 261.854 534.933C261.974 534.933 262.213 534.694 262.332 534.574H262.213Z" fill="#3A3A47"/>
<path d="M138.998 507.564L140.671 508.521C141.627 508.999 142.703 509.596 143.898 510.074C143.42 509.835 143.061 509.596 142.583 509.357C141.269 508.76 140.074 508.162 138.998 507.564Z" fill="#3A3A47"/>
<path d="M146.647 511.03C145.332 510.552 144.137 509.955 142.942 509.477C143.42 509.716 143.778 509.955 144.256 510.194C145.332 510.672 146.527 511.15 147.842 511.747C150.71 512.942 153.817 514.018 157.164 515.094C156.805 514.854 156.446 514.615 156.088 514.496C152.622 513.301 149.395 512.225 146.647 511.03Z" fill="#3A3A47"/>
<path d="M238.908 531.825C231.26 530.869 223.731 529.674 216.321 528.359C216.321 528.479 216.441 528.598 216.56 528.837C223.85 530.033 231.26 531.228 238.789 532.184C238.789 532.064 238.789 531.945 238.789 531.825H238.908Z" fill="#3A3A47"/>
<path d="M331.887 535.172L333.68 534.813C330.692 535.53 326.868 536.008 322.327 536.367C321.849 536.367 321.49 536.606 321.012 536.725C325.314 536.367 329.019 535.889 331.887 535.172Z" fill="#3A3A47"/>
<path d="M156.566 514.616C156.566 514.616 157.283 515.094 157.642 515.213C162.661 516.886 168.278 518.44 174.253 519.994C174.014 519.755 173.656 519.635 173.417 519.396C167.322 517.842 161.585 516.169 156.566 514.496V514.616Z" fill="#3A3A47"/>
<path d="M306.073 536.964C306.073 536.964 305.356 537.203 304.998 537.322C310.854 537.322 316.112 537.083 320.534 536.725C321.012 536.725 321.37 536.486 321.848 536.366C317.307 536.725 311.929 536.964 305.954 536.964H306.073Z" fill="#3A3A47"/>
<path d="M173.895 519.635C173.895 519.635 174.492 519.994 174.732 520.233C180.827 521.786 187.28 523.221 194.092 524.655C193.973 524.535 193.734 524.296 193.614 524.177C186.683 522.743 180.109 521.189 174.014 519.635H173.895Z" fill="#3A3A47"/>
<path d="M368.218 517.723C368.218 517.723 367.382 518.201 367.023 518.44C373.716 517.843 379.333 517.126 383.874 516.05C384.352 515.811 384.83 515.572 385.189 515.333C380.647 516.409 374.911 517.126 368.218 517.723Z" fill="#3A3A47"/>
<path d="M88.2062 470.516C88.2062 470.516 89.0428 471.234 89.4013 471.592C92.0305 473.743 95.9744 476.014 101.233 478.404C100.874 478.046 100.516 477.687 100.157 477.329C94.8988 474.938 90.8354 472.548 88.2062 470.397V470.516Z" fill="#3A3A47"/>
<path d="M209.15 505.772C198.155 503.86 187.4 501.828 177.002 499.796C177.122 500.035 177.241 500.394 177.361 500.633C187.639 502.784 198.275 504.816 209.15 506.608C209.15 506.369 209.15 506.13 209.031 505.772H209.15Z" fill="#3A3A47"/>
<path d="M367.621 517.842C360.809 518.32 352.921 518.679 343.958 518.679C343.6 518.918 343.241 519.157 343.002 519.396C351.846 519.396 359.614 519.157 366.426 518.559C366.784 518.32 367.263 518.081 367.621 517.842Z" fill="#3A3A47"/>
<path d="M87.0112 469.561L88.3258 470.756C88.3258 470.756 88.9233 471.234 89.1623 471.473C88.8038 471.114 88.3258 470.756 87.9672 470.397C87.6087 470.158 87.2502 469.8 87.0112 469.561Z" fill="#3A3A47"/>
<path d="M176.166 499.557C165.888 497.406 156.088 495.135 146.886 492.745C147.125 492.984 147.364 493.343 147.603 493.582C156.685 495.852 166.485 498.123 176.644 500.274C176.524 500.035 176.405 499.677 176.166 499.438V499.557Z" fill="#3A3A47"/>
<path d="M392.36 513.301L393.913 512.465C391.762 513.54 389.013 514.496 385.548 515.333C385.07 515.572 384.592 515.811 384.233 516.05C387.579 515.214 390.328 514.377 392.36 513.301Z" fill="#3A3A47"/>
<path d="M121.191 486.172C121.191 486.172 120.594 485.575 120.355 485.216C115.216 483.543 110.435 481.75 106.133 480.077C104.221 479.241 102.308 478.524 100.635 477.687C100.994 478.046 101.352 478.404 101.711 478.643C103.384 479.36 105.177 480.197 107.089 480.914C111.272 482.587 116.052 484.38 121.191 486.053V486.172Z" fill="#3A3A47"/>
<path d="M243.689 511.03C232.336 509.477 221.102 507.804 209.987 505.892C209.987 506.131 209.987 506.37 210.107 506.728C221.102 508.521 232.216 510.313 243.45 511.748C243.45 511.509 243.45 511.27 243.569 511.03H243.689Z" fill="#3A3A47"/>
<path d="M146.049 492.626C136.966 490.235 128.481 487.845 120.952 485.335C121.191 485.694 121.549 485.933 121.788 486.292C129.318 488.801 137.683 491.191 146.766 493.462C146.527 493.104 146.288 492.865 146.049 492.506V492.626Z" fill="#3A3A47"/>
<path d="M342.165 519.277C342.165 519.277 342.882 518.799 343.121 518.56C336.548 518.56 329.378 518.44 321.729 518.082C318.98 518.082 316.112 517.843 313.363 517.723C313.124 517.962 312.885 518.201 312.646 518.44C315.515 518.56 318.263 518.679 321.012 518.799C328.661 519.157 335.712 519.277 342.165 519.277Z" fill="#3A3A47"/>
<path d="M278.586 515.094C267.352 514.018 255.998 512.704 244.645 511.15C244.645 511.389 244.645 511.628 244.525 511.867C255.759 513.301 266.993 514.616 278.227 515.691C278.347 515.452 278.466 515.213 278.705 514.974L278.586 515.094Z" fill="#3A3A47"/>
<path d="M312.527 517.723C301.89 517.126 290.776 516.289 279.661 515.213C279.542 515.452 279.303 515.691 279.183 515.93C290.298 517.006 301.293 517.843 311.81 518.44C312.049 518.201 312.288 517.962 312.527 517.723Z" fill="#3A3A47"/>
<path d="M46.9752 422.712L47.9312 424.147C48.7678 425.342 50.0824 426.656 51.6361 428.09C51.397 427.612 51.0385 427.254 50.7995 426.776C49.1263 425.461 47.8117 424.147 46.9752 422.832V422.712Z" fill="#3A3A47"/>
<path d="M443.988 479.48L445.302 478.404C445.063 478.643 444.705 478.882 444.346 479.121C443.868 479.48 443.51 479.838 443.151 480.197C443.51 479.958 443.749 479.719 443.988 479.48Z" fill="#3A3A47"/>
<path d="M66.3359 435.739C59.5238 432.632 54.5044 429.644 51.0386 426.896C51.3971 427.374 51.6362 427.732 51.9947 428.21C55.4605 430.959 60.4799 433.947 67.292 437.054C67.053 436.576 66.6944 436.217 66.4554 435.739H66.3359Z" fill="#3A3A47"/>
<path d="M337.863 487.248C324.239 486.531 310.136 485.455 295.795 484.021C295.676 484.38 295.556 484.738 295.317 484.977C309.539 486.292 323.641 487.367 337.146 488.204C337.385 487.845 337.624 487.487 337.863 487.248Z" fill="#3A3A47"/>
<path d="M92.7474 446.734C92.7474 446.734 92.2694 445.897 92.0304 445.539C85.4573 443.388 79.3623 441.117 73.8648 438.966C71.3551 438.01 69.0844 436.934 66.9332 435.978C67.1722 436.456 67.4113 436.815 67.7698 437.293C69.921 438.249 72.1917 439.324 74.7014 440.28C80.1989 442.432 86.1744 444.702 92.7474 446.853V446.734Z" fill="#3A3A47"/>
<path d="M431.2 484.021C431.2 484.021 430.364 484.738 430.005 484.977C435.742 483.662 440.044 481.989 442.793 480.197C443.271 479.838 443.63 479.48 443.988 479.121C441.239 481.033 436.937 482.587 431.081 483.902L431.2 484.021Z" fill="#3A3A47"/>
<path d="M163.498 463.943C150.352 461.194 137.803 458.326 126.091 455.338C126.21 455.697 126.449 456.055 126.569 456.534C138.161 459.521 150.71 462.389 163.856 465.138C163.856 464.78 163.617 464.421 163.617 464.063L163.498 463.943Z" fill="#3A3A47"/>
<path d="M294.481 483.902C280.139 482.468 265.559 480.794 251.099 478.882C251.099 479.241 250.979 479.599 250.859 479.958C265.32 481.87 279.781 483.543 294.003 484.977C294.122 484.619 294.242 484.26 294.481 484.021V483.902Z" fill="#3A3A47"/>
<path d="M376.226 489.399C376.226 489.399 376.823 488.802 377.062 488.443C368.696 488.443 359.494 488.204 349.694 487.846C346.109 487.726 342.524 487.487 338.938 487.368C338.699 487.726 338.46 488.085 338.221 488.324C341.807 488.563 345.392 488.682 348.977 488.802C358.777 489.16 367.74 489.399 376.106 489.399H376.226Z" fill="#3A3A47"/>
<path d="M125.015 455.1C113.303 452.112 102.547 449.005 92.8672 445.778C93.1062 446.136 93.3452 446.614 93.5842 446.973C103.265 450.08 114.02 453.187 125.613 456.175C125.493 455.817 125.254 455.339 125.135 454.98L125.015 455.1Z" fill="#3A3A47"/>
<path d="M408.254 487.248C399.53 487.965 389.491 488.324 378.018 488.324C377.779 488.682 377.421 489.041 377.182 489.28C388.535 489.28 398.574 488.921 407.179 488.204C407.537 487.846 407.896 487.487 408.254 487.248Z" fill="#3A3A47"/>
<path d="M249.903 478.643C235.443 476.731 220.982 474.58 206.88 472.189C206.88 472.548 206.88 472.907 206.88 473.265C220.862 475.655 235.323 477.806 249.664 479.719C249.664 479.36 249.784 479.002 249.903 478.643Z" fill="#3A3A47"/>
<path d="M205.685 471.951C191.583 469.561 177.839 466.931 164.573 464.183C164.573 464.541 164.812 464.9 164.812 465.258C177.958 468.007 191.583 470.517 205.685 472.907C205.685 472.548 205.685 472.19 205.685 471.831V471.951Z" fill="#3A3A47"/>
<path d="M430.722 484.141C424.866 485.455 417.576 486.531 408.971 487.248C408.613 487.606 408.254 487.965 407.896 488.204C416.501 487.487 423.671 486.531 429.527 485.216C429.886 484.858 430.244 484.499 430.722 484.26V484.141Z" fill="#3A3A47"/>
<path d="M155.968 418.888C140.552 415.661 125.852 412.315 112.228 408.729C112.228 409.208 112.467 409.686 112.467 410.164C126.091 413.629 140.791 417.095 156.088 420.202C156.088 419.724 156.088 419.246 155.968 418.888Z" fill="#3A3A47"/>
<path d="M442.434 446.136C432.276 446.973 420.444 447.331 407.059 447.331C406.82 447.809 406.581 448.168 406.342 448.646C419.608 448.646 431.439 448.168 441.598 447.451C441.837 446.973 442.195 446.614 442.434 446.136Z" fill="#3A3A47"/>
<path d="M359.972 446.017C343.958 445.18 327.465 443.866 310.734 442.312C310.614 442.79 310.495 443.149 310.375 443.627C327.107 445.18 343.599 446.495 359.494 447.331C359.733 446.853 359.853 446.495 360.092 446.017H359.972Z" fill="#3A3A47"/>
<path d="M405.147 448.646C405.147 448.646 405.625 447.809 405.864 447.331C396.064 447.331 385.308 447.092 373.835 446.614C369.653 446.495 365.47 446.256 361.287 446.017C361.048 446.495 360.928 446.853 360.689 447.331C364.872 447.57 369.055 447.809 373.238 447.929C384.711 448.407 395.228 448.646 405.147 448.646Z" fill="#3A3A47"/>
<path d="M484.263 436.695C481.036 438.846 475.897 440.759 469.204 442.312C468.846 442.79 468.607 443.149 468.248 443.627C474.941 442.073 479.96 440.161 483.187 438.01C483.546 437.532 483.785 437.173 484.143 436.695H484.263Z" fill="#3A3A47"/>
<path d="M468.727 442.432C461.914 443.985 453.429 445.18 443.271 446.017C443.032 446.495 442.673 446.854 442.434 447.332C452.473 446.495 460.958 445.3 467.77 443.746C468.129 443.268 468.368 442.91 468.727 442.432Z" fill="#3A3A47"/>
<path d="M72.7895 398.691C72.7895 398.691 72.5505 397.735 72.3114 397.257C64.5433 394.747 57.4922 392.118 51.0386 389.608C48.0509 388.413 45.4217 387.218 42.9119 386.143C43.0315 386.621 43.2705 387.099 43.39 387.577C45.8997 388.772 48.6484 389.847 51.5167 391.042C57.8507 393.672 64.9018 396.181 72.67 398.691H72.7895Z" fill="#3A3A47"/>
<path d="M42.3145 385.784C34.4268 382.079 28.4513 378.733 24.388 375.386C24.627 375.864 24.7465 376.342 24.9855 376.94C29.0488 380.167 34.9048 383.632 42.912 387.218C42.7925 386.74 42.5535 386.262 42.434 385.784H42.3145Z" fill="#3A3A47"/>
<path d="M486.414 435.261L487.49 433.946C486.773 434.902 485.817 435.739 484.621 436.575C484.263 437.054 484.024 437.412 483.665 437.89C484.86 437.054 485.817 436.217 486.414 435.38V435.261Z" fill="#3A3A47"/>
<path d="M111.033 408.371C97.4085 404.905 84.7404 401.2 73.387 397.496C73.5065 397.974 73.626 398.452 73.865 398.93C85.2185 402.635 97.767 406.22 111.391 409.805C111.391 409.327 111.152 408.849 111.152 408.371H111.033Z" fill="#3A3A47"/>
<path d="M18.4123 368.335L19.0099 369.889C19.8464 372.04 21.6391 374.311 24.6269 376.701C24.3878 376.223 24.2683 375.745 24.0293 375.148C21.0415 372.757 19.2489 370.487 18.4123 368.335Z" fill="#3A3A47"/>
<path d="M257.074 435.978C240.104 433.708 223.253 431.198 206.76 428.33C206.76 428.808 206.76 429.166 206.76 429.644C223.253 432.393 240.104 435.022 256.955 437.293C256.955 436.815 257.074 436.456 257.194 435.978H257.074Z" fill="#3A3A47"/>
<path d="M205.326 428.09C188.834 425.341 172.7 422.234 157.283 419.007C157.283 419.485 157.283 419.963 157.403 420.322C172.819 423.549 188.834 426.536 205.207 429.285C205.207 428.807 205.207 428.329 205.207 427.971L205.326 428.09Z" fill="#3A3A47"/>
<path d="M309.3 442.073C292.569 440.4 275.479 438.488 258.508 436.217C258.508 436.695 258.389 437.054 258.269 437.532C275.12 439.803 292.091 441.715 308.822 443.388C308.941 442.91 309.061 442.551 309.181 442.073H309.3Z" fill="#3A3A47"/>
<path d="M29.4073 329.255C20.6831 325.311 14.11 321.487 9.68814 317.902C9.68814 318.499 9.80765 318.977 9.92716 319.575C14.349 323.16 20.8026 326.865 29.5268 330.928C29.5268 330.331 29.4073 329.853 29.2878 329.255H29.4073Z" fill="#3A3A47"/>
<path d="M208.314 375.865C190.268 372.757 172.58 369.411 155.61 365.945C155.61 366.423 155.61 367.021 155.61 367.499C172.461 370.965 190.148 374.311 208.194 377.418C208.194 376.94 208.194 376.343 208.314 375.865Z" fill="#3A3A47"/>
<path d="M62.631 343.477C62.631 343.477 62.631 342.401 62.5115 341.923C54.0262 339.175 46.2581 336.306 39.207 333.438C35.9802 332.123 32.9925 330.809 30.2437 329.614C30.2437 330.211 30.3632 330.689 30.4827 331.287C33.2315 332.602 36.2192 333.797 39.446 335.111C46.3776 337.979 54.2653 340.728 62.631 343.596V343.477Z" fill="#3A3A47"/>
<path d="M497.289 391.52C489.76 393.193 480.438 394.508 469.443 395.464C469.204 395.942 469.085 396.42 468.846 397.018C479.96 396.061 489.282 394.747 496.692 393.074C496.931 392.596 497.17 392.118 497.289 391.52Z" fill="#3A3A47"/>
<path d="M377.54 396.898C377.54 396.898 377.779 395.942 378.018 395.345C360.45 394.388 342.404 392.954 324 391.162C324 391.64 323.761 392.118 323.641 392.715C342.046 394.508 360.092 395.823 377.54 396.779V396.898Z" fill="#3A3A47"/>
<path d="M2.75653 308.341L2.99555 310.014C3.47359 312.883 5.62477 315.99 9.68812 319.217C9.68812 318.619 9.56861 318.141 9.4491 317.543C5.38575 314.197 3.23457 311.09 2.75653 308.222V308.341Z" fill="#3A3A47"/>
<path d="M514.379 385.187C510.794 387.577 505.297 389.728 497.887 391.401C497.648 391.879 497.409 392.357 497.289 392.955C504.699 391.282 510.196 389.13 513.782 386.74C514.021 386.262 514.26 385.784 514.499 385.187H514.379Z" fill="#3A3A47"/>
<path d="M265.081 384.469C246.438 381.959 227.914 379.211 209.868 376.104C209.868 376.582 209.868 377.179 209.748 377.657C227.794 380.764 246.318 383.513 264.962 386.023C264.962 385.545 265.081 385.067 265.201 384.469H265.081Z" fill="#3A3A47"/>
<path d="M468.368 395.583C457.134 396.42 444.227 396.898 429.647 396.898C429.527 397.376 429.288 397.854 429.169 398.452C443.749 398.452 456.656 397.974 467.89 397.137C468.129 396.659 468.248 396.062 468.487 395.583H468.368Z" fill="#3A3A47"/>
<path d="M518.084 382.079L518.801 380.525C518.084 382.079 516.77 383.633 514.738 385.067C514.499 385.545 514.26 386.142 514.021 386.62C516.052 385.186 517.367 383.752 518.084 382.199V382.079Z" fill="#3A3A47"/>
<path d="M154.176 365.587C137.325 362.121 121.191 358.296 106.133 354.472C106.133 354.95 106.133 355.548 106.133 356.026C121.191 359.85 137.205 363.555 154.056 367.14C154.056 366.662 154.056 366.065 154.056 365.587H154.176Z" fill="#3A3A47"/>
<path d="M104.818 354.233C89.8794 350.409 76.0162 346.346 63.5872 342.282C63.5872 342.76 63.5872 343.358 63.7067 343.836C76.1357 347.899 89.9989 351.843 104.938 355.787C104.938 355.309 104.938 354.711 104.938 354.233H104.818Z" fill="#3A3A47"/>
<path d="M427.854 398.452C427.854 398.452 428.213 397.496 428.332 396.898C417.576 396.898 405.864 396.659 393.196 396.181C388.655 395.942 383.994 395.823 379.333 395.583C379.213 396.062 379.094 396.54 378.855 397.137C383.516 397.376 388.057 397.615 392.599 397.735C405.147 398.213 416.859 398.452 427.615 398.452H427.854Z" fill="#3A3A47"/>
<path d="M322.327 391.162C303.922 389.369 285.278 387.218 266.635 384.708C266.635 385.186 266.515 385.784 266.396 386.262C284.92 388.771 303.683 390.923 321.968 392.715C321.968 392.237 322.207 391.759 322.327 391.162Z" fill="#3A3A47"/>
<path d="M442.912 340.011C442.912 340.011 443.151 338.816 443.151 338.338C431.917 338.338 419.847 338.099 406.701 337.501C401.92 337.262 397.14 337.023 392.36 336.784C392.36 337.382 392.121 337.979 392.121 338.457C396.901 338.696 401.681 338.935 406.462 339.174C419.488 339.652 431.678 340.011 442.912 340.011Z" fill="#3A3A47"/>
<path d="M390.925 336.784C372.76 335.828 353.877 334.275 334.756 332.482C334.756 333.079 334.636 333.677 334.517 334.155C353.638 335.948 372.401 337.501 390.686 338.457C390.686 337.86 390.925 337.262 390.925 336.784Z" fill="#3A3A47"/>
<path d="M158.359 305.831C140.791 302.127 124.059 298.302 108.523 294.358C108.523 294.956 108.403 295.554 108.284 296.032C123.94 299.975 140.671 303.919 158.12 307.505C158.12 306.907 158.239 306.309 158.359 305.831Z" fill="#3A3A47"/>
<path d="M484.86 336.904C473.268 337.86 459.763 338.338 444.585 338.338C444.585 338.936 444.346 339.534 444.346 340.012C459.524 340.012 473.029 339.534 484.621 338.577C484.621 337.98 484.86 337.382 484.98 336.904H484.86Z" fill="#3A3A47"/>
<path d="M273.686 325.431C254.325 322.802 235.084 319.934 216.321 316.707C216.321 317.305 216.202 317.902 216.082 318.38C234.845 321.607 254.086 324.475 273.447 327.104C273.447 326.507 273.567 325.909 273.686 325.431Z" fill="#3A3A47"/>
<path d="M214.648 316.468C195.885 313.242 177.48 309.776 159.912 306.19C159.912 306.788 159.793 307.386 159.673 307.864C177.241 311.568 195.646 314.915 214.409 318.141C214.409 317.544 214.528 316.946 214.648 316.468Z" fill="#3A3A47"/>
<path d="M532.545 326.148C528.84 328.658 523.104 330.809 515.455 332.602C515.455 333.2 515.216 333.797 515.096 334.275C522.745 332.482 528.482 330.331 532.186 327.822C532.186 327.224 532.425 326.626 532.545 326.148Z" fill="#3A3A47"/>
<path d="M28.9292 268.066C19.8464 263.884 13.1539 259.94 8.49298 256.235C8.49298 256.832 8.49298 257.43 8.37347 258.028C12.9149 261.732 19.7269 265.676 28.8097 269.859C28.8097 269.261 28.8097 268.664 28.9292 268.066Z" fill="#3A3A47"/>
<path d="M333.083 332.243C313.961 330.331 294.6 328.18 275.24 325.551C275.24 326.148 275.12 326.746 275.001 327.224C294.361 329.853 313.722 332.004 332.844 333.917C332.844 333.319 332.963 332.721 333.083 332.243Z" fill="#3A3A47"/>
<path d="M1.20288 246.077C1.20288 246.077 1.20288 247.272 1.08337 247.869C1.4419 250.977 3.7126 254.323 8.01496 257.789C8.01496 257.191 8.01496 256.594 8.13447 255.996C3.7126 252.411 1.4419 249.064 1.20288 246.077Z" fill="#3A3A47"/>
<path d="M62.9896 283.005C62.9896 283.005 62.9896 281.81 63.1091 281.213C54.2654 278.344 46.2582 275.357 38.9681 272.488C35.6218 271.174 32.5145 269.859 29.6463 268.544C29.6463 269.142 29.6463 269.74 29.5268 270.337C32.395 271.652 35.5023 272.966 38.8486 274.281C46.1387 277.269 54.2654 280.137 62.9896 283.005Z" fill="#3A3A47"/>
<path d="M107.208 294C91.672 289.937 77.2113 285.874 64.3042 281.571C64.3042 282.169 64.3042 282.766 64.1847 283.364C77.0918 287.547 91.5525 291.73 107.089 295.793C107.089 295.195 107.089 294.598 107.328 294.12L107.208 294Z" fill="#3A3A47"/>
<path d="M537.326 321.487L537.684 319.694C537.206 321.965 535.652 323.997 533.023 325.909C533.023 326.506 532.784 327.104 532.665 327.582C535.413 325.67 536.967 323.638 537.326 321.367V321.487Z" fill="#3A3A47"/>
<path d="M514.738 332.721C506.97 334.514 497.289 335.828 485.816 336.785C485.816 337.382 485.577 337.98 485.458 338.458C496.931 337.502 506.611 336.187 514.379 334.394C514.379 333.797 514.618 333.199 514.738 332.721Z" fill="#3A3A47"/>
<path d="M282.171 262.449C263.169 259.939 244.286 257.071 225.762 253.964C225.762 254.561 225.523 255.159 225.404 255.637C243.928 258.744 262.93 261.613 281.932 264.242C281.932 263.644 282.052 263.047 282.171 262.449Z" fill="#3A3A47"/>
<path d="M340.731 269.262C321.968 267.469 302.846 265.198 283.844 262.688C283.844 263.286 283.725 263.884 283.605 264.481C302.607 266.991 321.729 269.262 340.612 271.054C340.612 270.457 340.612 269.859 340.731 269.262Z" fill="#3A3A47"/>
<path d="M519.399 269.62C511.75 271.412 502.189 272.727 490.955 273.683C490.955 274.281 490.955 274.878 490.955 275.476C502.309 274.52 511.87 273.205 519.518 271.412C519.518 270.815 519.518 270.217 519.518 269.62H519.399Z" fill="#3A3A47"/>
<path d="M74.7017 220.621C74.7017 220.621 75.0602 219.546 75.1797 218.948C66.4555 216.08 58.5678 213.211 51.3972 210.343C48.1705 209.029 45.0632 207.714 42.1949 206.399C42.0754 206.997 41.8364 207.475 41.7169 208.073C44.5851 209.387 47.5729 210.702 50.9192 212.016C58.0898 214.885 66.097 217.872 74.7017 220.621Z" fill="#3A3A47"/>
<path d="M41.4778 206.04C32.5145 201.977 25.9415 198.033 21.4001 194.448C21.2806 195.045 21.0415 195.523 20.922 196.121C25.4634 199.706 32.156 203.65 40.9997 207.713C41.1192 207.116 41.3583 206.638 41.4778 206.04Z" fill="#3A3A47"/>
<path d="M397.498 273.564C379.572 272.608 361.048 271.174 342.285 269.381C342.285 269.978 342.285 270.576 342.165 271.174C360.928 272.966 379.572 274.4 397.379 275.356C397.379 274.759 397.379 274.161 397.379 273.564H397.498Z" fill="#3A3A47"/>
<path d="M224.089 253.606C205.565 250.498 187.519 247.033 170.19 243.447C170.19 244.045 169.951 244.523 169.832 245.12C187.161 248.706 205.207 252.172 223.731 255.279C223.731 254.681 223.97 254.084 223.97 253.606H224.089Z" fill="#3A3A47"/>
<path d="M20.4439 195.763C20.4439 195.763 20.8024 194.687 20.9219 194.089C16.6196 190.624 14.3489 187.277 14.1099 184.29C13.8708 184.887 13.7513 185.365 13.5123 185.963C13.8708 188.95 16.022 192.297 20.3244 195.763H20.4439Z" fill="#3A3A47"/>
<path d="M168.756 243.208C151.547 239.623 135.054 235.798 119.637 231.854C119.518 232.452 119.398 232.93 119.159 233.528C134.576 237.471 151.069 241.296 168.278 244.881C168.398 244.284 168.517 243.686 168.637 243.208H168.756Z" fill="#3A3A47"/>
<path d="M449.007 276.91C449.007 276.91 449.007 275.715 449.007 275.118C438.012 275.118 426.061 274.879 413.154 274.281C408.493 274.042 403.832 273.803 399.052 273.564C399.052 274.162 399.052 274.759 399.052 275.357C403.832 275.596 408.493 275.835 413.154 276.074C426.061 276.552 438.012 276.91 449.007 276.91Z" fill="#3A3A47"/>
<path d="M541.986 257.071V255.279C541.986 258.147 540.433 260.657 537.206 262.927C537.206 263.525 537.206 264.123 537.206 264.72C540.433 262.449 542.106 259.82 541.986 257.071Z" fill="#3A3A47"/>
<path d="M489.88 273.683C478.407 274.639 465.261 275.117 450.322 275.117C450.322 275.715 450.322 276.312 450.322 276.91C465.261 276.91 478.526 276.432 489.999 275.476C489.999 274.878 489.999 274.281 489.999 273.683H489.88Z" fill="#3A3A47"/>
<path d="M536.847 263.167C533.142 265.676 527.525 267.708 519.996 269.501C519.996 270.098 519.996 270.696 519.996 271.293C527.525 269.501 533.262 267.349 536.847 264.959C536.847 264.362 536.847 263.764 536.847 263.167Z" fill="#3A3A47"/>
<path d="M118.442 231.496C103.145 227.552 89.0427 223.489 76.2551 219.306C76.1356 219.904 75.8965 220.382 75.777 220.979C88.4451 225.162 102.667 229.225 117.964 233.169C118.084 232.572 118.203 232.094 118.442 231.496Z" fill="#3A3A47"/>
<path d="M65.4992 149.393C57.253 145.568 51.0385 141.983 46.7361 138.637C46.4971 139.115 46.1386 139.593 45.8995 140.071C50.0824 143.417 56.2969 147.122 64.6626 150.946C64.9016 150.468 65.1407 149.99 65.4992 149.512V149.393Z" fill="#3A3A47"/>
<path d="M397.379 212.374C380.648 211.418 363.438 210.104 345.87 208.431C345.87 209.028 345.87 209.506 345.87 210.104C363.438 211.777 380.767 213.092 397.499 214.048C397.499 213.45 397.499 212.972 397.499 212.374H397.379Z" fill="#3A3A47"/>
<path d="M289.82 201.858C272.132 199.468 254.445 196.838 237.235 193.851C237.235 194.329 236.996 194.926 236.877 195.524C254.206 198.392 271.893 201.141 289.581 203.531C289.581 202.933 289.7 202.455 289.82 201.858Z" fill="#3A3A47"/>
<path d="M184.173 183.931C168.039 180.585 152.742 176.999 138.401 173.414C138.161 173.892 138.042 174.49 137.803 174.968C152.144 178.673 167.561 182.138 183.695 185.604C183.814 185.126 184.053 184.528 184.173 184.05V183.931Z" fill="#3A3A47"/>
<path d="M45.5412 139.712C45.5412 139.712 46.1388 138.756 46.3778 138.278C42.434 135.051 40.2828 131.944 40.0438 129.195C39.8047 129.673 39.4462 130.151 39.2072 130.629C39.4462 133.498 41.5974 136.485 45.6607 139.832L45.5412 139.712Z" fill="#3A3A47"/>
<path d="M445.541 215.482C445.541 215.482 445.422 214.406 445.302 213.809C435.025 213.809 423.91 213.57 411.959 213.092C407.657 212.972 403.235 212.733 398.813 212.494C398.813 213.092 398.813 213.57 398.813 214.167C403.235 214.406 407.657 214.645 411.959 214.765C423.91 215.243 435.144 215.482 445.422 215.482H445.541Z" fill="#3A3A47"/>
<path d="M344.436 208.192C326.868 206.519 309.061 204.487 291.374 202.097C291.374 202.575 291.254 203.172 291.135 203.77C308.942 206.16 326.749 208.192 344.317 209.865C344.317 209.267 344.317 208.789 344.317 208.192H344.436Z" fill="#3A3A47"/>
<path d="M527.526 202.455C527.526 202.455 527.884 203.531 528.004 204.128C531.23 201.858 532.784 199.348 532.425 196.48C532.306 195.882 532.067 195.404 531.947 194.807C532.306 197.555 530.752 200.185 527.526 202.455Z" fill="#3A3A47"/>
<path d="M483.426 212.494C472.79 213.331 460.48 213.809 446.498 213.809C446.498 214.406 446.617 214.884 446.737 215.482C460.719 215.482 473.029 215.004 483.785 214.167C483.785 213.57 483.546 213.092 483.426 212.494Z" fill="#3A3A47"/>
<path d="M96.2136 162.897C96.2136 162.897 96.6916 161.822 96.9306 161.344C88.8039 158.715 81.3943 155.966 74.7017 153.337C71.714 152.142 68.8457 150.827 66.2165 149.632C65.9775 150.11 65.619 150.588 65.3799 151.066C68.0092 152.261 70.8774 153.456 73.9847 154.771C80.6772 157.519 88.0869 160.149 96.2136 162.897Z" fill="#3A3A47"/>
<path d="M235.801 193.731C218.592 190.743 201.741 187.636 185.607 184.29C185.488 184.768 185.249 185.365 185.129 185.843C201.263 189.189 218.114 192.416 235.443 195.284C235.443 194.806 235.682 194.209 235.801 193.731Z" fill="#3A3A47"/>
<path d="M510.914 208.67C503.743 210.224 494.899 211.538 484.382 212.375C484.382 212.972 484.621 213.45 484.741 214.048C495.377 213.211 504.221 211.897 511.392 210.343C511.272 209.746 511.153 209.267 511.033 208.67H510.914Z" fill="#3A3A47"/>
<path d="M527.286 202.575C523.821 204.845 518.562 206.877 511.631 208.55C511.75 209.148 511.87 209.626 511.989 210.223C519.04 208.55 524.299 206.638 527.765 204.248L527.286 202.575Z" fill="#3A3A47"/>
<path d="M137.205 173.056C122.984 169.351 109.718 165.646 97.8865 161.702C97.6475 162.18 97.4085 162.778 97.1694 163.256C109.001 167.2 122.267 170.904 136.608 174.609C136.847 174.131 137.086 173.534 137.205 173.056Z" fill="#3A3A47"/>
<path d="M162.422 120.591C149.873 117.364 138.281 114.018 127.884 110.671C127.525 111.149 127.286 111.508 126.928 111.986C137.325 115.452 149.037 118.798 161.585 122.025C161.824 121.547 162.063 121.069 162.303 120.71L162.422 120.591Z" fill="#3A3A47"/>
<path d="M490.597 151.783C484.382 153.217 476.495 154.292 467.292 155.009C467.531 155.488 467.651 155.966 467.89 156.563C477.212 155.846 485.099 154.651 491.314 153.217C491.075 152.739 490.836 152.261 490.597 151.783Z" fill="#3A3A47"/>
<path d="M126.091 111.628C126.091 111.628 126.689 110.791 127.047 110.313C119.996 107.923 113.423 105.652 107.567 103.262C104.938 102.186 102.428 101.111 100.038 100.035C99.6793 100.513 99.3207 100.872 98.9622 101.35C101.352 102.425 103.862 103.501 106.491 104.577C112.347 106.967 118.92 109.357 126.091 111.628Z" fill="#3A3A47"/>
<path d="M344.436 151.424C329.019 149.99 313.364 148.078 297.827 146.046C297.827 146.524 297.827 147.002 297.708 147.481C313.364 149.512 329.019 151.424 344.556 152.858C344.556 152.38 344.556 151.902 344.556 151.305L344.436 151.424Z" fill="#3A3A47"/>
<path d="M390.926 155.01C376.226 154.173 361.168 153.098 345.751 151.544C345.751 152.022 345.751 152.5 345.751 153.098C361.168 154.532 376.465 155.727 391.165 156.563C391.165 156.085 391.045 155.607 390.926 155.01Z" fill="#3A3A47"/>
<path d="M504.938 146.405C501.95 148.437 497.289 150.23 491.075 151.544C491.314 152.022 491.553 152.5 491.792 153.098C498.006 151.664 502.667 149.871 505.655 147.839C505.416 147.361 505.177 146.883 504.938 146.405Z" fill="#3A3A47"/>
<path d="M203.653 130.152C189.551 127.164 176.046 124.057 163.498 120.83C163.259 121.308 163.019 121.786 162.78 122.145C175.449 125.371 188.953 128.479 203.175 131.466C203.414 130.988 203.533 130.51 203.772 130.032L203.653 130.152Z" fill="#3A3A47"/>
<path d="M296.512 145.808C280.976 143.776 265.44 141.386 250.262 138.876C250.143 139.354 250.023 139.832 249.904 140.31C265.081 142.82 280.737 145.21 296.273 147.361C296.273 146.883 296.273 146.405 296.393 145.927L296.512 145.808Z" fill="#3A3A47"/>
<path d="M433.471 157.758C433.471 157.758 433.112 156.802 432.993 156.205C423.91 156.205 414.11 155.966 403.593 155.607C399.769 155.488 395.945 155.249 392.001 155.01C392.001 155.488 392.12 155.966 392.24 156.563C396.184 156.802 400.008 156.922 403.833 157.161C414.349 157.639 424.269 157.758 433.351 157.758H433.471Z" fill="#3A3A47"/>
<path d="M248.947 138.637C233.77 136.127 219.07 133.259 204.848 130.391C204.609 130.869 204.49 131.347 204.251 131.825C218.472 134.812 233.292 137.561 248.469 140.19C248.589 139.712 248.708 139.234 248.828 138.756L248.947 138.637Z" fill="#3A3A47"/>
<path d="M509.838 141.027C509.838 141.027 509.36 140.071 509.001 139.593C509.24 142.102 508.045 144.254 505.177 146.285C505.416 146.763 505.655 147.241 506.014 147.719C508.882 145.688 510.197 143.537 509.838 141.027Z" fill="#3A3A47"/>
<path d="M99.4403 99.6767C92.1502 96.3304 86.6527 93.1036 82.9479 90.2354C82.5894 90.5939 82.2308 91.0719 81.8723 91.4305C85.5771 94.4182 91.0746 97.645 98.3647 100.991C98.7232 100.513 99.0818 100.155 99.4403 99.6767Z" fill="#3A3A47"/>
<path d="M81.5135 91.1915C81.5135 91.1915 82.2306 90.355 82.5891 89.9964C79.1233 87.1282 77.2112 84.3795 76.9721 81.9893C76.6136 82.3478 76.2551 82.8258 75.777 83.1844C76.0161 85.6941 77.9282 88.3233 81.394 91.1915H81.5135Z" fill="#3A3A47"/>
<path d="M466.575 155.129C457.253 155.846 446.378 156.324 434.188 156.324C434.308 156.802 434.547 157.28 434.666 157.878C446.976 157.878 457.851 157.519 467.173 156.683C466.934 156.204 466.814 155.726 466.575 155.129Z" fill="#3A3A47"/>
<path d="M440.164 103.74C432.515 104.338 423.791 104.696 413.752 104.696C413.991 105.174 414.23 105.533 414.469 106.011C424.508 106.011 433.352 105.652 441 105.055C440.761 104.577 440.403 104.218 440.164 103.74Z" fill="#3A3A47"/>
<path d="M471.475 96.6888C468.965 98.362 465.261 99.7961 460.241 100.872C460.6 101.35 460.839 101.708 461.197 102.186C466.217 100.991 470.041 99.5571 472.551 97.8839C472.192 97.4059 471.834 97.0474 471.475 96.5693V96.6888Z" fill="#3A3A47"/>
<path d="M162.781 68.2455C162.781 68.2455 163.498 67.5284 163.856 67.1699C158.12 65.2577 152.742 63.3456 147.961 61.4334C145.81 60.5968 143.778 59.6408 141.866 58.8042C141.388 59.1627 141.03 59.5213 140.552 59.7603C142.464 60.5969 144.496 61.5529 146.647 62.3895C151.427 64.3017 156.805 66.3333 162.542 68.2455H162.781Z" fill="#3A3A47"/>
<path d="M301.771 96.2106C289.103 94.5375 276.435 92.6253 264.125 90.4741C264.006 90.8327 263.886 91.3107 263.767 91.6692C276.196 93.8204 288.864 95.7326 301.651 97.4057C301.651 96.9277 301.651 96.5691 301.771 96.0911V96.2106Z" fill="#3A3A47"/>
<path d="M141.388 58.565C135.413 55.8163 130.991 53.3066 128.003 50.7969C127.525 51.1554 127.047 51.3944 126.688 51.753C129.676 54.1432 134.218 56.7724 140.193 59.5211C140.671 59.1626 141.03 58.8041 141.508 58.565H141.388Z" fill="#3A3A47"/>
<path d="M378.616 103.62C366.665 103.023 354.355 102.067 341.807 100.752C341.807 101.23 341.807 101.589 341.926 102.067C354.475 103.262 366.904 104.218 378.975 104.935C378.855 104.457 378.736 104.098 378.616 103.62Z" fill="#3A3A47"/>
<path d="M340.851 100.633C328.302 99.4377 315.634 98.0036 302.966 96.2109C302.966 96.689 302.966 97.0475 302.966 97.5255C315.754 99.1987 328.541 100.752 341.09 101.947C341.09 101.469 341.09 101.111 340.97 100.633H340.851Z" fill="#3A3A47"/>
<path d="M192.658 75.5354C182.5 72.9062 173.058 70.1574 164.573 67.4087C164.215 67.7672 163.856 68.1258 163.498 68.4843C171.983 71.233 181.544 73.9817 191.822 76.611C192.18 76.2524 192.419 75.8939 192.778 75.5354H192.658Z" fill="#3A3A47"/>
<path d="M413.632 106.011C413.632 106.011 413.154 105.174 413.035 104.696C405.625 104.696 397.738 104.577 389.133 104.218C386.026 104.099 382.918 103.979 379.691 103.74C379.811 104.218 379.93 104.577 380.169 105.055C383.396 105.174 386.504 105.413 389.611 105.533C398.216 105.891 406.223 106.011 413.632 106.011Z" fill="#3A3A47"/>
<path d="M263.169 90.3546C250.859 88.3229 238.789 86.0522 227.316 83.5425C227.077 83.901 226.838 84.3791 226.718 84.7376C238.311 87.1278 250.381 89.3985 262.81 91.5497C262.93 91.1911 263.049 90.7131 263.169 90.3546Z" fill="#3A3A47"/>
<path d="M475.897 92.2669C475.897 92.2669 475.18 91.4303 474.822 91.0718C475.061 93.1034 473.985 94.8961 471.714 96.5692C472.073 97.0473 472.431 97.4058 472.79 97.8839C475.18 96.2107 476.136 94.4181 475.897 92.3864V92.2669Z" fill="#3A3A47"/>
<path d="M226.24 83.3035C214.767 80.9133 203.772 78.4036 193.495 75.7744C193.136 76.1329 192.897 76.4915 192.658 76.85C202.936 79.4792 214.05 81.9889 225.523 84.4987C225.762 84.1401 226.001 83.6621 226.24 83.3035Z" fill="#3A3A47"/>
<path d="M459.883 100.991C454.744 102.186 448.41 103.023 440.881 103.62C441.12 104.098 441.478 104.457 441.717 104.935C449.366 104.337 455.7 103.381 460.839 102.306C460.48 101.828 460.241 101.469 459.883 100.991Z" fill="#3A3A47"/>
<path d="M126.449 51.6336C126.449 51.6336 127.405 51.0361 127.764 50.6775C124.896 48.2873 123.342 46.1362 123.223 44.1045C122.745 44.463 122.267 44.702 121.788 45.0606C122.027 47.0922 123.462 49.2434 126.33 51.6336H126.449Z" fill="#3A3A47"/>
<path d="M178.556 22.5924C178.556 22.5924 179.512 22.1144 180.11 21.9949C178.078 20.3217 177.002 18.7681 176.763 17.334C176.285 17.573 175.688 17.6925 175.21 17.9315C175.329 19.3657 176.405 21.0388 178.556 22.7119V22.5924Z" fill="#3A3A47"/>
<path d="M226.957 39.9214C219.548 38.0093 212.736 36.0971 206.641 34.0654C206.282 34.3044 205.804 34.5435 205.446 34.902C211.66 36.9337 218.472 38.8458 226.001 40.8775C226.36 40.6385 226.599 40.28 226.957 40.0409V39.9214Z" fill="#3A3A47"/>
<path d="M419.727 58.2065C416.022 59.0431 411.481 59.6407 405.984 60.1187C406.342 60.4772 406.701 60.8358 407.059 61.1943C412.557 60.7163 417.218 60.1187 420.922 59.2821C420.564 58.9236 420.086 58.5651 419.727 58.2065Z" fill="#3A3A47"/>
<path d="M189.909 27.6121C185.607 25.6999 182.38 23.7878 180.229 21.9951C179.751 22.2341 179.273 22.4732 178.675 22.5927C180.827 24.3853 184.173 26.2975 188.475 28.2096C188.953 27.9706 189.431 27.7316 189.909 27.4926V27.6121Z" fill="#3A3A47"/>
<path d="M405.506 60.1187C400.008 60.5967 393.674 60.8357 386.503 60.8357C386.742 61.1942 387.101 61.5528 387.34 61.9113C394.63 61.9113 401.084 61.6723 406.581 61.1942C406.223 60.8357 405.864 60.4772 405.506 60.1187Z" fill="#3A3A47"/>
<path d="M277.749 50.5576C268.906 49.004 260.181 47.4504 251.816 45.6577C251.577 46.0162 251.338 46.2553 251.099 46.6138C259.464 48.4065 268.308 50.0796 277.271 51.5137C277.391 51.1552 277.51 50.9162 277.63 50.5576H277.749Z" fill="#3A3A47"/>
<path d="M204.848 34.663C204.848 34.663 205.685 34.185 206.043 33.8265C201.86 32.5119 198.036 31.0777 194.57 29.6436C193.017 29.0461 191.582 28.329 190.148 27.7314C189.67 27.9705 189.192 28.2095 188.714 28.4485C190.148 29.0461 191.582 29.7631 193.136 30.3607C196.602 31.7948 200.546 33.2289 204.729 34.5435L204.848 34.663Z" fill="#3A3A47"/>
<path d="M386.743 61.9113C386.743 61.9113 386.145 61.1942 385.906 60.8357C380.647 60.8357 374.911 60.7162 368.696 60.4772C366.426 60.4772 364.155 60.2382 361.884 60.1187C362.123 60.4772 362.243 60.8357 362.482 61.1942C364.753 61.3137 367.023 61.4333 369.294 61.5528C375.509 61.7918 381.365 61.9113 386.743 61.9113Z" fill="#3A3A47"/>
<path d="M305.715 54.7406C296.632 53.5455 287.43 52.1114 278.586 50.6772C278.466 51.0358 278.347 51.2748 278.227 51.6333C287.191 53.187 296.393 54.5016 305.715 55.8162C305.715 55.4577 305.715 55.0991 305.715 54.7406Z" fill="#3A3A47"/>
<path d="M429.527 56.0556C429.527 56.0556 428.691 55.3385 428.213 54.98C426.42 56.1751 423.791 57.1312 420.086 58.0872C420.444 58.4458 420.922 58.8043 421.281 59.1628C424.986 58.3263 427.735 57.2507 429.527 56.0556Z" fill="#3A3A47"/>
<path d="M333.8 57.9671C324.717 57.1306 315.634 56.055 306.432 54.8599C306.432 55.2184 306.432 55.5769 306.432 55.9355C315.634 57.1306 324.956 58.2061 334.158 59.1622C334.158 58.8037 334.039 58.4452 333.919 58.0866L333.8 57.9671Z" fill="#3A3A47"/>
<path d="M361.168 60.1186C352.563 59.6405 343.6 58.9235 334.636 58.0869C334.636 58.4454 334.756 58.804 334.875 59.1625C343.958 59.9991 353.041 60.7161 361.765 61.1942C361.526 60.8356 361.407 60.4771 361.168 60.1186Z" fill="#3A3A47"/>
<path d="M431.917 51.9917C431.917 51.9917 430.961 51.3942 430.603 51.0356C430.722 52.4698 430.005 53.7844 428.332 54.9795C428.81 55.338 429.169 55.6965 429.647 56.0551C431.32 54.86 432.156 53.5454 431.917 52.1112V51.9917Z" fill="#3A3A47"/>
<path d="M251.099 45.5385C242.852 43.7458 234.845 41.9532 227.555 40.041C227.197 40.28 226.838 40.6386 226.599 40.8776C234.128 42.7898 242.135 44.5824 250.501 46.3751C250.74 46.0165 250.979 45.7775 251.218 45.419L251.099 45.5385Z" fill="#3A3A47"/>
<path d="M307.866 23.4289C302.727 22.7118 297.708 21.9948 292.688 21.1582C292.688 21.3972 292.449 21.6362 292.33 21.8753C297.469 22.7118 302.607 23.5484 307.866 24.2655C307.866 24.0264 307.866 23.7874 307.866 23.5484V23.4289Z" fill="#3A3A47"/>
<path d="M292.21 21.1584C287.191 20.3218 282.41 19.3657 277.749 18.4097C277.51 18.6487 277.271 18.7682 277.032 19.0072C281.813 19.9633 286.713 20.9194 291.852 21.756C291.971 21.5169 292.091 21.2779 292.21 21.1584Z" fill="#3A3A47"/>
<path d="M277.391 18.29C272.73 17.3339 268.308 16.2583 264.125 15.3022C263.767 15.4218 263.408 15.6608 263.05 15.7803C267.232 16.8559 271.774 17.9315 276.554 18.8876C276.793 18.6485 277.032 18.529 277.271 18.29H277.391Z" fill="#3A3A47"/>
<path d="M323.641 25.3415C318.622 24.8634 313.483 24.2659 308.344 23.5488C308.344 23.7878 308.344 24.0269 308.344 24.2659C313.602 24.9829 318.861 25.5805 324 26.0585C324 25.8195 323.761 25.5805 323.641 25.3415Z" fill="#3A3A47"/>
<path d="M353.758 27.7316C353.758 27.7316 353.041 27.2536 352.802 26.895C349.814 26.895 346.587 26.895 343.121 26.656C341.807 26.656 340.612 26.656 339.297 26.417C339.536 26.656 339.775 26.895 340.014 27.2536C341.329 27.2536 342.643 27.3731 343.958 27.4926C347.543 27.6121 350.77 27.7316 353.877 27.7316H353.758Z" fill="#3A3A47"/>
<path d="M263.767 15.1828C259.703 14.1072 255.879 13.0316 252.413 11.9561C251.935 12.0756 251.577 12.3146 251.099 12.4341C254.564 13.6292 258.508 14.7048 262.691 15.7804C263.05 15.6609 263.408 15.4218 263.767 15.3023V15.1828Z" fill="#3A3A47"/>
<path d="M363.677 26.5361C360.57 26.7752 357.104 26.8947 353.041 26.8947C353.399 27.1337 353.758 27.3727 353.997 27.7312C358.06 27.7312 361.765 27.6117 364.872 27.3727C364.514 27.1337 364.036 26.8947 363.677 26.5361Z" fill="#3A3A47"/>
<path d="M371.684 25.4609C369.653 25.939 367.023 26.2975 364.036 26.5365C364.514 26.7755 364.872 27.0146 365.231 27.3731C368.338 27.1341 370.967 26.7755 373.118 26.2975C372.64 26.0585 372.162 25.8195 371.684 25.5804V25.4609Z" fill="#3A3A47"/>
<path d="M376.345 23.6683C375.389 24.2659 373.835 24.8634 371.804 25.3415C372.282 25.5805 372.76 25.8195 373.238 26.0585C375.269 25.5805 376.823 24.9829 377.899 24.2659C377.421 24.0269 376.823 23.7878 376.345 23.5488V23.6683Z" fill="#3A3A47"/>
<path d="M338.939 26.5365C334.158 26.2975 329.139 25.939 324.119 25.4609C324.119 25.7 324.358 25.939 324.478 26.178C329.617 26.656 334.756 27.0146 339.656 27.3731C339.417 27.1341 339.178 26.8951 338.939 26.5365Z" fill="#3A3A47"/>
<path d="M250.859 12.1949C250.859 12.1949 251.696 11.9559 252.174 11.7169C249.784 10.9998 247.752 10.1633 245.721 9.4462C244.884 9.08767 244.047 8.72914 243.211 8.37061C242.733 8.37061 242.255 8.60963 241.657 8.72914C242.494 9.08767 243.33 9.4462 244.167 9.80473C246.199 10.6413 248.35 11.3584 250.74 12.1949H250.859Z" fill="#3A3A47"/>
<path d="M235.921 5.38289C235.921 5.38289 236.996 5.14387 237.594 5.14387C236.399 4.18779 235.801 3.35122 235.801 2.51465C235.204 2.51465 234.726 2.63416 234.128 2.75367C234.128 3.59024 234.845 4.42681 236.04 5.5024L235.921 5.38289Z" fill="#3A3A47"/>
<path d="M379.333 22.1145C379.333 22.1145 378.257 21.6365 377.779 21.3975C377.779 22.234 377.421 22.9511 376.465 23.5486C376.943 23.7877 377.54 24.0267 378.018 24.2657C378.975 23.5486 379.453 22.8316 379.333 21.995V22.1145Z" fill="#3A3A47"/>
<path d="M243.091 8.37094C240.701 7.29534 238.909 6.21975 237.713 5.26367C237.116 5.26367 236.638 5.50269 236.04 5.50269C237.235 6.45877 239.148 7.53436 241.538 8.72947C242.016 8.60996 242.494 8.49045 243.091 8.37094Z" fill="#3A3A47"/>
<path d="M0.48584 286.471C0.72486 289.936 0.96388 293.402 1.32241 296.868L0.48584 286.471Z" fill="#3A3A47"/>
<path d="M0.485792 285.276L0.00775146 269.381C0.00775146 274.639 0.00775146 280.017 0.366282 285.276H0.485792Z" fill="#3A3A47"/>
<path d="M100.516 481.272C98.7229 479.838 97.0498 478.404 95.3766 476.851C96.4522 477.687 97.4083 478.643 98.4839 479.48L100.635 481.153L100.516 481.272Z" fill="#3A3A47"/>
<path d="M94.6597 476.373C94.6597 476.373 95.0183 476.731 95.2573 476.851C95.0183 476.731 94.8987 476.492 94.6597 476.373Z" fill="#3A3A47"/>
<path d="M187.28 528.718C185.966 528.24 184.651 527.881 183.456 527.403C184.532 527.762 185.607 528.12 186.683 528.479L187.4 528.718H187.28Z" fill="#3A3A47"/>
<path d="M340.492 533.02C340.492 533.02 340.014 533.14 339.775 533.259C340.014 533.259 340.253 533.14 340.492 533.02Z" fill="#3A3A47"/>
<path d="M335.473 534.335C336.907 533.976 338.341 533.618 339.655 533.259C337.743 533.737 335.712 534.335 333.799 534.813L335.473 534.454V534.335Z" fill="#3A3A47"/>
<path d="M528.003 204.009C528.003 204.009 527.764 202.933 527.525 202.336C522.267 183.334 514.977 165.048 506.014 147.719C505.775 147.241 505.536 146.763 505.177 146.285C496.094 129.076 485.219 112.703 472.67 97.7643C472.312 97.2862 471.953 96.9277 471.595 96.4497C459.046 81.5109 444.944 68.0062 429.527 55.9357C429.049 55.5772 428.691 55.2187 428.213 54.8601C412.676 42.9091 395.825 32.6313 377.899 24.2655C377.421 24.0265 376.943 23.7875 376.345 23.5485C358.777 15.4218 340.253 9.20727 320.773 4.90491C320.892 4.7854 321.012 4.66588 321.012 4.54637C340.851 8.13168 359.733 13.8682 377.66 21.3973C378.138 21.6363 378.735 21.8753 379.213 22.1144C397.498 30.002 414.708 39.6824 430.483 51.0358C430.961 51.3943 431.439 51.6334 431.798 51.9919C447.573 63.4649 461.914 76.611 474.702 91.0717C475.061 91.5497 475.419 91.9083 475.778 92.2668C488.446 106.847 499.56 122.622 508.882 139.593C509.121 140.071 509.36 140.549 509.718 141.027C518.921 157.997 526.33 176.043 531.708 194.807C531.828 195.285 532.067 195.882 532.186 196.48C533.859 202.455 535.294 208.55 536.608 214.765L535.652 209.745C512.587 105.532 427.615 21.6363 316.112 3.7098C316.112 3.7098 314.797 4.42687 312.168 4.30735C308.344 4.18784 303.324 3.23176 301.054 2.39519C300.337 2.03666 299.978 1.79764 299.859 1.55862C299.022 1.55862 298.186 1.3196 297.349 1.3196C153.22 -12.7826 22.4757 88.801 2.51746 232.691C0.963832 244.403 0.00775146 255.996 0.00775146 267.588V269.5C0.00775146 262.33 0.366282 255.159 0.963832 247.869C0.963832 247.271 0.963833 246.674 1.08334 246.076C1.44187 241.894 1.91991 237.711 2.51746 233.528C4.78816 217.155 8.49297 201.26 13.5124 186.082C13.7514 185.485 13.8709 185.007 14.1099 184.409C20.5635 165.407 28.9292 147.361 39.0876 130.63C39.3266 130.152 39.6851 129.673 39.9241 129.195C50.202 112.464 62.2725 97.1667 75.7772 83.184C76.1357 82.8255 76.4942 82.3475 76.9723 81.9889C90.5964 68.1258 105.535 55.8162 121.789 45.0603C122.267 44.7018 122.745 44.4628 123.223 44.1042C139.476 33.5873 156.925 24.6241 175.21 17.6925C175.688 17.4535 176.285 17.334 176.763 17.0949C195.048 10.2829 214.289 5.38295 234.009 2.63421C234.606 2.63421 235.084 2.5147 235.682 2.39519C254.923 -0.11452 274.762 -0.71207 294.839 1.08058C294.839 1.20009 294.959 1.43911 295.198 1.55862C275.598 0.602541 256.357 1.79764 237.474 5.02442C236.877 5.02442 236.399 5.26344 235.801 5.26344C216.56 8.72923 197.797 14.3462 179.87 21.7558C179.392 21.9949 178.914 22.2339 178.317 22.3534C160.51 29.8825 143.539 39.3238 127.645 50.4383C127.167 50.7968 126.688 51.0358 126.33 51.3943C110.555 62.6283 95.8549 75.4159 82.5892 89.7571C82.2307 90.1156 81.8722 90.5937 81.5137 90.9522C68.248 105.293 56.536 121.069 46.3777 138.039C46.1387 138.517 45.7801 138.995 45.5411 139.473C35.5023 156.444 27.2561 174.729 20.922 193.85C20.8025 194.448 20.5635 194.926 20.444 195.524C15.5441 210.821 11.8393 226.716 9.56856 243.089C8.97101 247.271 8.49297 251.454 8.13444 255.637C8.13444 256.235 8.13444 256.832 8.01493 257.43C6.22228 277.866 6.81983 297.944 9.44905 317.304C9.44905 317.902 9.56856 318.38 9.68807 318.978C12.4368 338.338 17.3367 356.982 24.1488 374.789C24.3878 375.267 24.5073 375.745 24.7463 376.342C31.6779 394.03 40.4022 410.761 50.7996 426.298C51.0386 426.776 51.3971 427.134 51.6361 427.612C62.153 443.029 74.3431 457.37 87.9672 470.038C88.3257 470.397 88.8038 470.755 89.1623 471.114C90.955 472.787 92.8671 474.46 94.7793 476.133C92.9866 474.58 91.194 473.026 89.4013 471.353C89.0428 470.994 88.6843 470.636 88.2062 470.277C74.5821 457.609 62.392 443.388 51.8751 427.851C51.5166 427.373 51.2776 427.015 50.9191 426.537C40.5217 411 31.7974 394.269 24.8659 376.581C24.6268 376.103 24.5073 375.625 24.2683 375.028C17.4562 357.34 12.6758 338.577 9.92709 319.217C9.92709 318.619 9.80758 318.141 9.68807 317.543C7.05885 298.183 6.4613 278.105 8.25395 257.669C8.25395 257.071 8.25395 256.474 8.37346 255.876C8.73199 251.693 9.21003 247.51 9.80758 243.328C12.0783 226.955 15.7831 211.06 20.683 195.763C20.8025 195.165 21.0415 194.687 21.161 194.089C27.4951 174.968 35.7413 156.683 45.7801 139.712C46.0191 139.234 46.3777 138.756 46.6167 138.278C56.6556 121.308 68.487 105.532 81.6332 91.1912C81.9917 90.8327 82.3502 90.3546 82.7088 89.9961C95.9744 75.6549 110.674 62.8673 126.449 51.6334C126.928 51.2748 127.406 51.0358 127.764 50.6773C143.659 39.5628 160.629 30.1215 178.436 22.4729C178.914 22.2339 179.392 21.9949 179.99 21.8753C197.797 14.3462 216.56 8.84874 235.801 5.26344C236.279 5.26344 236.877 5.02442 237.474 5.02442C256.237 1.79764 275.479 0.483031 295.078 1.43911C295.317 1.55862 295.676 1.79764 296.034 2.03666C277.988 2.03666 260.181 4.06833 242.852 8.13168C242.374 8.13168 241.896 8.3707 241.299 8.49021C223.492 12.7926 206.163 19.2461 189.67 27.4923C189.192 27.7313 188.714 27.9704 188.236 28.2094C171.744 36.5751 155.968 46.7334 141.149 58.4454C140.671 58.804 140.313 59.1625 139.835 59.4015C125.135 71.233 111.511 84.7377 99.0816 99.4374C98.7231 99.9154 98.3646 100.274 98.0061 100.752C85.6965 115.571 74.7016 131.825 65.1408 149.154C64.9017 149.632 64.6627 150.11 64.3042 150.588C54.8629 167.917 47.0947 186.441 40.9997 205.801C40.8802 206.399 40.6412 206.877 40.5217 207.475C35.8608 222.891 32.2755 238.906 30.0048 255.279C29.4072 259.461 28.9292 263.644 28.5707 267.827C28.5707 268.425 28.5707 269.022 28.4512 269.62C26.6585 290.056 26.8975 309.895 29.1682 329.016C29.1682 329.614 29.2877 330.092 29.4072 330.69C31.7974 349.811 36.0998 368.096 42.0753 385.545C42.1948 386.023 42.4338 386.501 42.5534 386.979C48.6484 404.308 56.536 420.561 65.9773 435.5C66.2164 435.978 66.4554 436.336 66.8139 436.814C76.3747 451.753 87.3697 465.258 99.7987 477.328C100.157 477.687 100.516 478.045 100.874 478.404C113.423 490.355 127.286 500.752 142.225 509.238C142.703 509.477 143.061 509.716 143.539 509.955C147.244 511.986 150.949 513.899 154.773 515.811L155.968 516.408C151.786 514.496 147.842 512.345 143.778 510.194C143.3 509.955 142.942 509.716 142.464 509.477C127.525 500.991 113.662 490.594 101.233 478.643C100.874 478.285 100.516 477.926 100.157 477.687C87.7282 465.736 76.7333 452.112 67.292 437.293C67.0529 436.815 66.8139 436.456 66.4554 435.978C57.0141 421.039 49.2459 404.786 43.0314 387.576C42.9119 387.098 42.6729 386.62 42.5534 386.142C36.5778 368.813 32.2755 350.528 29.8853 331.407C29.8853 330.809 29.7658 330.331 29.6463 329.733C27.3756 310.612 27.1366 290.654 28.9292 270.337C28.9292 269.739 28.9292 269.142 29.0487 268.544C29.4072 264.361 29.8853 260.179 30.4828 255.996C32.7535 239.623 36.3388 223.608 40.9997 208.192C41.1192 207.594 41.3583 207.116 41.4778 206.519C47.4533 187.158 55.3409 168.634 64.6627 151.305C64.9017 150.827 65.1408 150.349 65.4993 149.871C74.9406 132.542 85.9355 116.288 98.2451 101.469C98.6036 100.991 98.9621 100.633 99.3207 100.154C111.63 85.3352 125.374 71.8306 139.954 59.9991C140.432 59.6405 140.791 59.282 141.269 59.043C155.968 47.2115 171.744 37.0531 188.236 28.6874C188.714 28.4484 189.192 28.2094 189.67 27.9704C206.163 19.7242 223.492 13.2706 241.179 8.96825C241.657 8.96825 242.135 8.72923 242.733 8.60972C260.062 4.54637 277.749 2.39519 295.795 2.39519C295.915 2.39519 296.034 2.39519 296.273 2.63421C296.632 2.75372 296.99 2.87323 297.468 3.11225C282.052 4.06833 266.635 7.05609 251.696 12.0755C251.218 12.195 250.86 12.3145 250.381 12.5536C234.965 17.812 220.026 25.1021 205.685 34.1849C205.326 34.4239 204.848 34.6629 204.49 35.0215C190.148 44.2237 176.405 55.0992 163.498 67.6477C163.139 68.0063 162.781 68.3648 162.422 68.7233C149.515 81.2719 137.564 95.3741 126.688 110.671C126.33 111.149 126.091 111.508 125.732 111.986C114.857 127.403 105.057 144.134 96.5719 161.822C96.3329 162.3 96.0939 162.778 95.8549 163.375C87.4892 181.182 80.3186 199.945 74.8211 219.426C74.7016 220.023 74.4626 220.501 74.343 221.099C70.0407 236.635 66.5749 252.769 64.4237 269.142C63.8262 273.325 63.3481 277.508 62.8701 281.69C62.8701 282.288 62.8701 282.885 62.7506 283.483C60.7189 303.8 60.5994 323.519 62.153 342.402C62.153 342.88 62.153 343.477 62.2725 343.955C63.9457 362.838 67.292 380.764 72.0724 397.615C72.1919 398.093 72.3114 398.571 72.5504 399.049C77.4503 415.9 83.9039 431.556 91.7915 445.897C92.0305 446.256 92.2696 446.734 92.5086 447.092C100.396 461.314 109.599 474.221 120.115 485.455C120.354 485.814 120.713 486.053 120.952 486.411C131.469 497.526 143.181 507.086 155.849 514.735C156.207 514.974 156.566 515.213 156.925 515.333C165.29 520.233 174.014 524.296 183.097 527.642C174.134 524.415 165.529 520.352 157.283 515.572C156.925 515.333 156.566 515.094 156.207 514.974C143.539 507.325 131.947 497.765 121.43 486.65C121.191 486.292 120.832 486.053 120.593 485.694C110.196 474.46 100.994 461.553 93.2257 447.331C92.9866 446.973 92.7476 446.495 92.5086 446.136C84.7404 431.795 78.2869 416.139 73.387 399.288C73.2675 398.81 73.1479 398.332 72.9089 397.854C68.1285 381.003 64.7822 363.077 63.2286 344.194C63.2286 343.716 63.2286 343.119 63.1091 342.641C61.5555 323.758 61.675 304.039 63.7066 283.722C63.7066 283.124 63.7067 282.527 63.8262 281.929C64.3042 277.747 64.7822 273.564 65.3798 269.381C67.6505 253.008 70.9968 236.994 75.2991 221.338C75.4186 220.74 75.6577 220.262 75.7772 219.665C81.2746 200.184 88.3257 181.421 96.6914 163.614C96.9305 163.136 97.1695 162.658 97.4085 162.061C105.894 144.373 115.574 127.642 126.449 112.225C126.808 111.747 127.047 111.388 127.406 110.91C138.281 95.4936 150.232 81.3914 163.02 68.8428C163.378 68.4843 163.737 68.1258 164.095 67.7672C176.883 55.3382 190.626 44.3432 204.848 35.141C205.207 34.9019 205.685 34.6629 206.043 34.3044C220.384 25.2216 235.323 17.9315 250.501 12.6731C250.979 12.5536 251.338 12.3145 251.816 12.195C266.754 7.1756 281.932 4.06833 297.349 3.11225C297.946 3.35127 298.664 3.47078 299.381 3.7098C287.191 5.50246 275.001 9.5658 263.05 15.4218C262.691 15.5413 262.332 15.7803 261.974 15.8998C249.664 21.9949 237.713 30.2411 226.121 40.0409C225.762 40.2799 225.404 40.6384 225.165 40.8775C213.572 50.7968 202.458 62.5088 191.941 75.7744C191.582 76.1329 191.343 76.4915 190.985 76.85C180.468 90.1156 170.668 104.815 161.585 120.71C161.346 121.188 161.107 121.666 160.868 122.025C151.905 137.92 143.659 155.129 136.488 173.175C136.249 173.653 136.13 174.251 135.891 174.729C128.72 192.894 122.625 211.896 117.725 231.616C117.606 232.213 117.486 232.691 117.247 233.289C113.423 248.945 110.196 265.078 108.045 281.451C107.447 285.634 106.969 289.817 106.491 294C106.491 294.597 106.372 295.195 106.252 295.673C104.101 315.99 103.384 335.589 104.101 354.233C104.101 354.711 104.101 355.309 104.101 355.787C104.818 374.311 106.969 391.998 110.196 408.491C110.196 408.969 110.435 409.447 110.435 409.925C113.781 426.298 118.442 441.475 124.179 455.219C124.298 455.578 124.537 456.056 124.657 456.414C130.393 470.038 137.325 482.228 145.213 492.745C145.452 493.104 145.691 493.343 145.93 493.701C153.817 504.099 162.781 512.823 172.58 519.635C172.819 519.874 173.178 519.994 173.417 520.233C182.5 526.328 192.18 530.869 202.577 533.618H202.936C192.539 530.989 182.858 526.567 173.895 520.352C173.656 520.113 173.297 519.994 173.058 519.755C163.378 512.942 154.534 504.218 146.647 493.821C146.408 493.582 146.169 493.223 145.93 492.984C138.161 482.467 131.349 470.277 125.613 456.653C125.493 456.295 125.254 455.817 125.135 455.458C119.518 441.714 114.857 426.537 111.63 410.164C111.63 409.686 111.391 409.208 111.391 408.73C108.164 392.357 106.013 374.669 105.296 356.145C105.296 355.667 105.296 355.07 105.296 354.592C104.699 335.948 105.296 316.348 107.567 296.151C107.567 295.554 107.686 294.956 107.806 294.478C108.284 290.295 108.762 286.112 109.36 281.929C111.63 265.556 114.737 249.423 118.562 233.767C118.681 233.169 118.801 232.691 119.04 232.094C123.94 212.374 130.035 193.372 137.205 175.207C137.444 174.729 137.564 174.131 137.803 173.653C144.974 155.607 153.1 138.398 162.063 122.383C162.303 121.905 162.542 121.427 162.781 121.069C171.744 105.174 181.544 90.4742 191.941 77.2085C192.18 76.85 192.539 76.4915 192.778 76.1329C203.175 62.9868 214.289 51.2748 225.762 41.236C226.121 40.997 226.36 40.6384 226.718 40.3994C238.191 30.4801 250.142 22.3534 262.332 16.1389C262.691 15.8998 263.05 15.7803 263.408 15.6608C275.24 9.80482 287.31 5.74148 299.381 3.82931C300.098 4.06833 300.934 4.18784 301.771 4.42687C293.405 7.1756 284.92 11.956 276.554 18.6486C276.315 18.8876 276.076 19.0071 275.837 19.2461C267.232 26.1777 258.747 35.141 250.381 45.7774C250.142 46.1359 249.903 46.3749 249.664 46.7335C241.299 57.4894 233.292 69.9184 225.523 83.6621C225.284 84.0206 225.045 84.4986 224.806 84.8572C217.038 98.7204 209.748 114.018 202.816 130.391C202.577 130.869 202.458 131.347 202.219 131.825C195.407 148.317 189.073 165.885 183.336 184.29C183.217 184.768 182.978 185.365 182.858 185.843C177.241 204.248 172.222 223.608 167.919 243.447C167.8 244.045 167.68 244.642 167.561 245.12C164.215 260.896 161.346 277.149 159.076 293.522C158.478 297.705 158 301.888 157.403 306.07C157.403 306.668 157.283 307.266 157.164 307.744C154.773 327.941 153.459 347.421 153.1 365.826C153.1 366.304 153.1 366.901 153.1 367.379C152.742 385.664 153.459 402.993 155.012 419.008C155.012 419.486 155.012 419.964 155.132 420.322C156.686 436.217 159.195 450.917 162.542 464.063C162.542 464.421 162.781 464.78 162.781 465.138C166.127 478.165 170.31 489.757 175.21 499.677C175.329 499.916 175.449 500.274 175.688 500.513C180.588 510.194 186.324 518.201 192.658 524.296C192.778 524.415 193.017 524.654 193.136 524.774C199.59 530.63 206.641 534.574 214.289 536.366C214.409 536.366 214.648 536.366 214.767 536.366H215.126C215.126 536.366 214.767 536.366 214.528 536.366C206.999 534.693 199.948 530.749 193.614 524.893C193.495 524.774 193.256 524.535 193.017 524.415C186.802 518.44 181.185 510.433 176.285 500.752C176.166 500.513 176.046 500.155 175.927 499.916C171.146 490.116 167.083 478.524 163.737 465.497C163.737 465.138 163.498 464.78 163.498 464.421C160.271 451.275 157.881 436.575 156.327 420.681C156.327 420.203 156.327 419.725 156.207 419.366C154.773 403.352 154.176 386.023 154.534 367.738C154.534 367.26 154.534 366.662 154.534 366.184C154.893 347.779 156.327 328.419 158.598 308.102C158.598 307.505 158.717 306.907 158.837 306.429C159.315 302.246 159.912 298.063 160.39 293.88C162.661 277.508 165.529 261.254 168.756 245.479C168.756 244.881 168.995 244.403 169.115 243.806C173.297 223.967 178.317 204.606 183.934 186.202C184.053 185.724 184.292 185.126 184.412 184.648C190.029 166.244 196.363 148.676 203.175 132.183C203.414 131.705 203.533 131.227 203.773 130.749C210.585 114.376 217.875 99.0789 225.523 85.0962C225.762 84.7377 226.001 84.2596 226.121 83.9011C233.77 70.0379 241.777 57.6089 250.023 46.853C250.262 46.4944 250.501 46.2554 250.74 45.8969C258.986 35.2605 267.352 26.2972 275.957 19.2461C276.196 19.0071 276.435 18.8876 276.674 18.6486C284.92 11.956 293.286 7.05609 301.532 4.30735C302.368 4.42687 303.324 4.66589 304.161 4.7854C299.978 8.25119 295.556 13.8682 291.134 21.3973C291.015 21.6363 290.895 21.8753 290.776 21.9949C286.115 29.763 281.454 39.4433 276.674 50.6773C276.554 51.0358 276.435 51.2748 276.315 51.6334C271.535 62.9868 266.754 76.0134 262.093 90.4742C261.974 90.8327 261.854 91.3107 261.735 91.6693C257.074 106.13 252.413 121.905 247.991 138.756C247.991 139.234 247.752 139.712 247.633 140.19C243.211 157.041 238.908 175.087 234.845 193.85C234.845 194.328 234.606 194.926 234.487 195.404C230.423 214.167 226.599 233.647 223.253 253.725C223.253 254.323 223.014 254.92 223.014 255.398C220.265 271.293 217.755 287.546 215.485 303.919C214.887 308.102 214.289 312.285 213.811 316.468C213.811 317.065 213.692 317.663 213.572 318.141C210.943 338.338 208.911 357.579 207.477 375.864C207.477 376.342 207.477 376.94 207.358 377.418C205.924 395.584 204.968 412.554 204.49 428.21C204.49 428.688 204.49 429.166 204.49 429.524C204.131 445.061 204.251 459.282 204.848 471.951C204.848 472.309 204.848 472.668 204.848 473.026C205.446 485.575 206.641 496.57 208.314 505.772C208.314 506.011 208.314 506.25 208.433 506.608C210.107 515.691 212.258 522.981 214.887 528.359C214.887 528.479 215.006 528.718 215.126 528.837C217.755 533.976 220.862 537.203 224.448 538.159C224.448 538.159 224.687 538.159 224.806 538.159C224.926 538.159 225.165 538.159 225.284 538.159H225.523C225.523 538.159 225.284 538.159 225.045 538.159H224.806C221.34 537.203 218.353 534.096 215.843 528.957C215.843 528.837 215.724 528.598 215.604 528.479C213.094 523.22 211.063 515.93 209.509 506.728C209.509 506.489 209.509 506.25 209.389 505.891C207.836 496.689 206.76 485.694 206.163 473.146C206.163 472.787 206.163 472.429 206.163 472.07C205.565 459.402 205.565 445.18 206.043 429.644C206.043 429.166 206.043 428.807 206.043 428.329C206.521 412.673 207.477 395.703 209.031 377.537C209.031 377.059 209.031 376.462 209.15 375.984C210.704 357.818 212.736 338.577 215.365 318.26C215.365 317.663 215.485 317.065 215.604 316.587C216.082 312.404 216.68 308.341 217.277 304.039C219.548 287.666 222.058 271.412 224.806 255.518C224.806 254.92 225.045 254.323 225.165 253.844C228.631 233.886 232.335 214.287 236.279 195.524C236.279 194.926 236.518 194.448 236.638 193.85C240.582 175.087 244.884 157.161 249.306 140.19C249.425 139.712 249.545 139.234 249.664 138.756C254.086 121.905 258.628 106.13 263.169 91.5497C263.289 91.0717 263.408 90.7132 263.528 90.3546C268.188 76.0134 272.849 62.8673 277.391 51.5139C277.51 51.1553 277.63 50.9163 277.749 50.5578C282.41 39.2043 286.952 29.524 291.493 21.7558C291.612 21.5168 291.732 21.2778 291.851 21.0388C296.273 13.6291 300.456 8.01217 304.639 4.42687C305.595 4.54638 306.551 4.7854 307.388 4.90491C307.507 9.08776 307.388 15.3023 307.029 23.429C307.029 23.668 307.029 23.907 307.029 24.146C306.551 32.5117 305.834 42.7896 304.878 54.7406C304.878 55.0992 304.878 55.4577 304.878 55.8162C303.922 67.7672 302.607 81.3914 301.054 96.2106C301.054 96.6887 301.054 97.0472 300.934 97.5253C299.381 112.464 297.707 128.717 295.676 145.927C295.676 146.405 295.676 146.883 295.556 147.361C293.644 164.69 291.493 182.975 289.103 201.977C289.103 202.575 288.983 203.053 288.864 203.65C286.474 222.652 283.964 242.372 281.335 262.569C281.335 263.166 281.215 263.764 281.096 264.361C278.944 280.376 276.793 296.629 274.522 313.122C273.925 317.304 273.327 321.487 272.73 325.67C272.73 326.268 272.61 326.865 272.491 327.343C269.623 347.54 266.874 366.662 264.125 384.708C264.125 385.186 264.006 385.664 263.886 386.262C261.257 404.188 258.628 420.92 256.118 436.336C256.118 436.814 255.998 437.173 255.879 437.651C253.369 452.948 251.099 466.812 248.947 479.002C248.947 479.36 248.947 479.719 248.708 480.077C246.557 492.267 244.525 502.784 242.733 511.389C242.733 511.628 242.733 511.867 242.613 512.106C240.821 520.711 239.267 527.403 237.952 532.184C237.952 532.303 237.952 532.423 237.952 532.542C236.638 537.083 235.562 539.713 234.726 539.952H234.965C234.965 539.952 234.965 539.952 235.084 539.952C236.04 539.713 237.235 537.203 238.669 532.542C238.669 532.423 238.669 532.303 238.669 532.184C240.104 527.523 241.777 520.711 243.689 512.225C243.689 511.986 243.689 511.747 243.808 511.508C245.721 502.784 247.752 492.267 250.023 480.197C250.023 479.838 250.142 479.48 250.262 479.121C252.533 466.931 254.923 453.068 257.433 437.771C257.433 437.293 257.552 436.934 257.672 436.456C260.181 421.159 262.811 404.427 265.559 386.501C265.559 386.023 265.679 385.545 265.798 384.947C268.547 366.901 271.296 347.779 274.164 327.582C274.164 326.985 274.283 326.387 274.403 325.909C275.001 321.846 275.598 317.663 276.196 313.361C278.466 296.988 280.618 280.615 282.769 264.6C282.769 264.003 282.888 263.405 283.008 262.808C285.637 242.73 288.147 223.011 290.417 203.889C290.417 203.292 290.537 202.814 290.656 202.216C292.927 183.214 295.078 164.929 296.871 147.6C296.871 147.122 296.871 146.644 296.99 146.166C298.903 128.956 300.576 112.703 302.01 97.7643C302.01 97.2862 302.01 96.9277 302.01 96.4497C303.444 81.5109 304.639 68.0062 305.476 56.0552C305.476 55.6967 305.476 55.3382 305.476 54.9796C306.312 43.0286 307.029 32.7508 307.268 24.3851C307.268 24.146 307.268 23.907 307.268 23.668C307.507 15.5413 307.627 9.32678 307.268 5.14393C308.224 5.26344 309.18 5.38295 310.137 5.50246C314.797 10.1634 318.98 16.9754 322.685 25.4606C322.685 25.6997 322.924 25.9387 323.044 26.1777C326.868 35.0215 330.095 45.7774 332.963 58.0869C332.963 58.4454 333.082 58.804 333.202 59.1625C335.951 71.5916 338.221 85.5742 339.895 100.752C339.895 101.23 339.895 101.589 340.014 102.067C341.687 117.364 342.882 133.976 343.48 151.424C343.48 151.902 343.48 152.38 343.48 152.978C344.077 170.546 344.077 189.07 343.48 208.311C343.48 208.909 343.48 209.387 343.48 209.984C342.882 229.225 341.687 249.064 339.895 269.261C339.895 269.859 339.895 270.456 339.775 271.054C338.341 287.188 336.429 303.441 334.158 319.934C333.56 324.116 332.963 328.299 332.365 332.482C332.365 333.08 332.246 333.677 332.126 334.155C329.019 354.233 325.553 373.355 321.609 391.281C321.609 391.759 321.37 392.237 321.251 392.835C317.307 410.642 313.005 427.134 308.463 442.312C308.344 442.79 308.224 443.149 308.105 443.627C303.563 458.685 298.664 472.189 293.644 484.14C293.525 484.499 293.405 484.858 293.166 485.097C288.147 496.928 283.008 507.086 277.749 515.333C277.63 515.572 277.391 515.811 277.271 516.05C272.013 524.296 266.635 530.51 261.376 534.813C261.257 534.932 261.137 535.052 260.898 535.171C255.64 539.354 250.262 541.386 245.123 541.147C245.004 541.147 244.764 541.147 244.645 541.147C244.525 541.147 244.286 541.147 244.167 541.147H244.406C244.406 541.147 244.764 541.147 244.884 541.147C245.004 541.147 245.243 541.147 245.362 541.147C250.62 541.386 255.998 539.354 261.496 535.171C261.615 535.171 261.854 534.932 261.974 534.813C267.352 530.63 272.849 524.296 278.227 516.05C278.347 515.811 278.586 515.572 278.705 515.333C284.083 507.086 289.342 496.928 294.481 485.097C294.6 484.738 294.72 484.379 294.959 484.14C300.098 472.189 304.878 458.685 309.539 443.627C309.658 443.149 309.778 442.79 309.898 442.312C314.558 427.254 318.861 410.642 322.805 392.835C322.805 392.357 323.044 391.879 323.163 391.281C327.107 373.474 330.692 354.353 333.68 334.155C333.68 333.558 333.8 332.96 333.919 332.482C334.517 328.419 335.114 324.236 335.712 319.934C337.982 303.561 339.775 287.188 341.329 271.054C341.329 270.456 341.329 269.859 341.448 269.261C343.241 249.064 344.436 229.106 345.034 209.984C345.034 209.387 345.034 208.909 345.034 208.311C345.512 189.07 345.512 170.546 344.914 152.978C344.914 152.5 344.914 152.022 344.914 151.424C344.197 133.856 343.002 117.364 341.209 101.947C341.209 101.469 341.209 101.111 341.09 100.633C339.297 85.3352 336.907 71.3525 334.039 58.9235C334.039 58.5649 333.919 58.2064 333.8 57.8479C330.931 45.5384 327.466 34.7824 323.522 25.9387C323.522 25.6997 323.283 25.4606 323.163 25.2216C319.339 16.6169 315.036 9.92433 310.256 5.14393C311.212 5.14393 312.168 5.26344 313.005 5.38295C321.968 10.4024 330.214 17.4535 337.982 26.2972C338.221 26.5362 338.46 26.7753 338.699 27.1338C346.587 36.3361 353.758 47.331 360.331 59.9991C360.45 60.3576 360.689 60.7161 360.928 61.0747C367.382 73.7427 372.999 87.9644 377.899 103.501C378.018 103.979 378.138 104.337 378.257 104.815C383.038 120.352 386.982 137.203 390.089 154.89C390.089 155.368 390.208 155.966 390.328 156.444C393.316 174.251 395.467 192.894 396.542 212.255C396.542 212.853 396.542 213.331 396.542 213.928C397.618 233.289 397.618 253.247 396.542 273.564C396.542 274.161 396.542 274.759 396.542 275.356C395.706 291.49 394.152 307.863 391.881 324.236C391.284 328.419 390.686 332.602 389.969 336.785C389.969 337.382 389.73 337.98 389.73 338.458C386.384 358.535 382.201 377.657 377.062 395.344C376.943 395.823 376.823 396.301 376.584 396.898C371.445 414.586 365.589 430.958 359.016 446.017C358.777 446.495 358.658 446.853 358.419 447.331C351.846 462.151 344.555 475.536 336.787 487.248C336.548 487.606 336.309 487.845 336.07 488.204C328.302 499.796 320.056 509.716 311.451 517.723C311.212 517.962 310.973 518.201 310.734 518.44C302.129 526.328 293.166 532.423 283.964 536.366C283.725 536.366 283.486 536.605 283.127 536.725C274.044 540.549 264.842 542.222 255.52 541.744H255.879C265.32 542.222 274.642 540.549 283.725 536.725C283.964 536.725 284.203 536.486 284.561 536.366C293.883 532.423 302.966 526.447 311.69 518.44C311.929 518.201 312.168 517.962 312.407 517.723C321.131 509.716 329.497 499.796 337.265 488.204C337.504 487.845 337.743 487.487 337.982 487.248C345.751 475.536 353.16 462.151 359.733 447.331C359.972 446.853 360.092 446.495 360.331 446.017C366.904 431.078 372.879 414.705 378.018 397.018C378.138 396.54 378.257 396.062 378.496 395.464C383.635 377.657 387.818 358.655 391.164 338.577C391.164 337.98 391.403 337.382 391.403 336.904C392.12 332.841 392.718 328.658 393.316 324.355C395.586 307.983 397.14 291.61 397.976 275.476C397.976 274.878 397.976 274.281 397.976 273.683C398.933 253.366 398.933 233.408 397.857 214.048C397.857 213.45 397.857 212.972 397.857 212.374C396.662 193.014 394.511 174.37 391.523 156.563C391.523 156.085 391.403 155.607 391.284 155.01C388.177 137.322 384.113 120.471 379.213 104.935C379.094 104.457 378.974 104.098 378.735 103.62C373.835 88.084 367.979 73.8622 361.526 61.1942C361.287 60.8356 361.167 60.4771 360.928 60.1186C354.355 47.4505 347.065 36.4556 339.058 27.2533C338.819 27.0143 338.58 26.7753 338.341 26.4167C330.573 17.573 322.088 10.5219 313.005 5.50246C313.244 5.50246 313.483 5.50246 313.722 5.50246C314.319 5.50246 314.917 5.50246 315.514 5.50246C328.302 10.6414 340.492 17.812 351.846 26.7753C352.204 27.0143 352.563 27.2533 352.802 27.6118C364.394 36.9336 375.15 48.0481 384.95 60.7161C385.189 61.0747 385.547 61.4332 385.786 61.7917C395.586 74.5793 404.311 88.9205 411.959 104.457C412.198 104.935 412.437 105.293 412.557 105.771C420.205 121.427 426.659 138.278 432.037 156.085C432.156 156.563 432.395 157.041 432.515 157.639C437.773 175.446 441.717 194.209 444.346 213.57C444.346 214.167 444.466 214.645 444.585 215.243C447.095 234.603 448.29 254.681 448.051 274.998C448.051 275.595 448.051 276.193 448.051 276.79C447.693 292.924 446.498 309.297 444.227 325.67C443.629 329.853 443.032 334.036 442.315 338.099C442.315 338.697 442.076 339.294 442.076 339.772C438.61 359.85 433.59 378.852 427.495 396.659C427.376 397.137 427.137 397.615 427.017 398.213C420.803 415.9 413.393 432.273 405.028 447.092C404.789 447.57 404.55 447.929 404.311 448.407C395.825 463.226 386.384 476.492 376.226 488.204C375.987 488.562 375.628 488.921 375.389 489.16C365.111 500.633 353.997 510.552 342.404 518.44C342.046 518.679 341.687 518.918 341.448 519.157C329.736 527.045 317.427 532.901 304.759 536.725C304.4 536.725 304.042 536.964 303.683 537.083C294.122 539.832 284.442 541.505 274.522 541.864H275.12C284.92 541.505 294.6 539.832 304.161 537.083C304.52 537.083 304.878 536.844 305.237 536.725C318.024 532.901 330.334 526.925 342.165 519.157C342.524 518.918 342.882 518.679 343.121 518.44C354.833 510.552 365.948 500.633 376.345 489.16C376.584 488.801 376.943 488.562 377.182 488.204C387.46 476.611 397.02 463.226 405.506 448.407C405.745 447.929 405.984 447.57 406.223 447.092C414.588 432.154 422.118 415.781 428.332 398.213C428.452 397.735 428.691 397.257 428.81 396.659C434.905 378.972 439.924 359.85 443.39 339.772C443.39 339.175 443.629 338.577 443.629 338.099C444.346 334.036 444.944 329.853 445.541 325.67C447.812 309.297 449.007 292.924 449.366 276.79C449.366 276.193 449.366 275.595 449.366 274.998C449.605 254.681 448.41 234.723 445.9 215.243C445.9 214.645 445.781 214.167 445.661 213.57C443.032 194.209 438.968 175.446 433.71 157.639C433.591 157.161 433.351 156.683 433.232 156.085C427.854 138.278 421.281 121.427 413.632 105.771C413.393 105.293 413.154 104.935 412.915 104.457C405.147 88.9205 396.303 74.5793 386.504 61.7917C386.264 61.4332 385.906 61.0747 385.667 60.7161C375.748 48.0481 364.872 36.8141 353.28 27.6118C352.921 27.3728 352.563 27.1338 352.324 26.7753C340.851 17.812 328.661 10.6414 315.754 5.50246C316.471 5.50246 317.188 5.50246 317.666 5.50246C333.561 10.5219 348.738 17.6925 362.96 26.5362C363.438 26.7753 363.797 27.0143 364.155 27.3728C378.735 36.5751 392.24 47.6895 404.789 60.2381C405.147 60.5966 405.506 60.9552 405.864 61.3137C418.293 73.9818 429.527 88.2035 439.447 103.74C439.686 104.218 440.044 104.576 440.283 105.054C450.202 120.591 458.688 137.442 465.739 155.129C465.978 155.607 466.097 156.085 466.336 156.683C473.268 174.49 478.765 193.133 482.709 212.494C482.709 213.092 482.948 213.57 483.068 214.167C486.772 233.528 488.924 253.486 489.163 273.803C489.163 274.4 489.163 274.998 489.163 275.595C489.282 291.729 488.326 308.102 486.055 324.475C485.458 328.658 484.86 332.841 484.143 336.904C484.143 337.502 483.904 338.099 483.785 338.577C480.08 358.655 474.702 377.776 467.77 395.464C467.531 395.942 467.412 396.42 467.173 397.018C460.122 414.705 451.517 431.078 441.717 446.017C441.478 446.495 441.12 446.853 440.881 447.331C430.961 462.151 419.847 475.536 407.537 487.248C407.179 487.606 406.82 487.965 406.462 488.204C394.152 499.796 380.887 509.716 366.784 517.723C366.426 517.962 365.948 518.201 365.589 518.44C351.487 526.328 336.548 532.423 321.131 536.366C320.653 536.366 320.295 536.605 319.817 536.725C312.766 538.518 305.595 539.713 298.305 540.669H299.022C306.193 539.713 313.244 538.398 320.175 536.725C320.653 536.725 321.012 536.486 321.49 536.366C337.026 532.423 351.965 526.328 366.187 518.44C366.545 518.201 367.023 517.962 367.382 517.723C381.484 509.716 394.869 499.796 407.179 488.204C407.537 487.845 407.896 487.487 408.254 487.248C420.564 475.536 431.678 462.151 441.717 447.331C441.956 446.853 442.315 446.495 442.554 446.017C452.473 431.078 460.958 414.705 468.009 396.898C468.248 396.42 468.368 395.942 468.607 395.344C475.539 377.537 481.036 358.535 484.741 338.458C484.741 337.86 484.98 337.263 485.099 336.785C485.816 332.721 486.533 328.538 487.012 324.355C489.282 307.983 490.358 291.61 490.119 275.476C490.119 274.878 490.119 274.281 490.119 273.683C489.88 253.366 487.729 233.408 483.904 214.048C483.904 213.45 483.665 212.972 483.546 212.374C479.721 193.014 474.104 174.37 467.053 156.563C466.814 156.085 466.695 155.607 466.456 155.01C459.405 137.322 450.8 120.471 440.881 104.935C440.642 104.457 440.283 104.098 440.044 103.62C430.125 88.084 418.771 73.8622 406.342 61.1942C405.984 60.8356 405.625 60.4771 405.267 60.1186C392.718 47.57 379.094 36.4556 364.514 27.2533C364.036 27.0143 363.677 26.7753 363.319 26.4167C348.977 17.573 333.8 10.5219 317.905 5.50246C318.502 5.50246 318.98 5.50246 319.339 5.26344C337.504 10.0438 354.714 16.7364 371.087 25.3411C371.565 25.5802 372.043 25.8192 372.521 26.0582C389.252 35.0215 404.789 45.7774 419.13 58.0869C419.488 58.4454 419.966 58.804 420.325 59.1625C434.666 71.5916 447.573 85.5742 459.166 100.872C459.524 101.35 459.763 101.708 460.122 102.186C471.595 117.483 481.634 134.095 489.999 151.663C490.238 152.141 490.477 152.619 490.716 153.097C498.963 170.665 505.536 189.309 510.316 208.431C510.436 209.028 510.555 209.506 510.675 210.104C515.335 229.345 518.084 249.184 518.682 269.5C518.682 270.098 518.682 270.695 518.682 271.293C519.16 287.427 518.323 303.68 516.052 320.173C515.455 324.355 514.857 328.538 514.021 332.721C514.021 333.319 513.782 333.916 513.662 334.394C509.838 354.472 504.101 373.594 496.453 391.52C496.214 391.998 495.975 392.476 495.855 393.074C488.207 410.881 478.765 427.373 467.89 442.431C467.531 442.909 467.292 443.268 466.934 443.746C455.939 458.685 443.51 472.309 429.886 484.14C429.527 484.499 429.049 484.858 428.691 485.097C414.947 496.928 400.128 506.967 384.233 515.333C383.755 515.572 383.277 515.811 382.918 516.05C369.055 523.101 354.594 528.837 339.536 533.02C354.714 528.837 369.414 523.22 383.277 516.05C383.755 515.811 384.233 515.572 384.591 515.333C400.486 507.086 415.425 496.928 429.169 485.097C429.527 484.738 430.005 484.379 430.364 484.14C443.988 472.189 456.536 458.685 467.412 443.627C467.77 443.149 468.009 442.79 468.368 442.312C479.243 427.254 488.685 410.642 496.333 392.954C496.572 392.476 496.811 391.998 496.931 391.401C504.46 373.594 510.316 354.472 514.14 334.275C514.14 333.677 514.379 333.08 514.499 332.602C515.216 328.538 515.933 324.355 516.531 320.053C518.801 303.68 519.638 287.307 519.16 271.173C519.16 270.576 519.16 269.978 519.16 269.381C518.443 249.184 515.694 229.225 511.033 209.984C510.914 209.387 510.794 208.909 510.675 208.311C505.894 189.07 499.321 170.546 491.075 152.978C490.836 152.5 490.597 152.022 490.358 151.424C481.992 133.856 471.953 117.244 460.48 101.947C460.122 101.469 459.883 101.111 459.524 100.633C447.932 85.3352 434.905 71.3525 420.564 58.9235C420.205 58.5649 419.727 58.2064 419.369 57.8479C404.908 45.5384 389.252 34.7824 372.521 25.8192C372.043 25.5802 371.565 25.3411 371.087 25.1021C354.714 16.4974 337.385 9.80482 319.219 5.02442C319.578 5.02442 319.817 4.7854 320.056 4.66588C339.536 8.96825 358.06 15.1828 375.628 23.3095C376.106 23.5485 376.704 23.7875 377.182 24.0265C395.108 32.5117 411.959 42.7896 427.376 54.7406C427.854 55.0992 428.213 55.4577 428.691 55.8162C444.107 67.8867 458.21 81.3914 470.758 96.3302C471.117 96.8082 471.475 97.1667 471.834 97.6448C484.263 112.584 495.138 128.956 504.221 146.166C504.46 146.644 504.699 147.122 504.938 147.6C513.901 164.929 521.191 183.214 526.45 202.216L526.928 203.889C532.067 222.891 535.174 242.73 536.13 262.808C536.13 263.405 536.13 264.003 536.13 264.6C536.728 280.615 536.13 296.988 533.74 313.361C533.142 317.543 532.425 321.726 531.708 325.909C531.708 326.507 531.469 327.104 531.35 327.582C527.525 347.779 521.43 366.901 513.543 384.947C513.304 385.425 513.065 386.023 512.826 386.501C504.819 404.427 494.899 421.159 483.426 436.456C483.068 436.934 482.829 437.293 482.47 437.771C470.878 453.068 457.732 466.812 443.271 479.002C442.912 479.36 442.434 479.719 442.076 480.077C438.849 482.706 435.622 485.336 432.276 487.845C435.742 485.336 438.968 482.706 442.315 479.958C442.793 479.599 443.151 479.241 443.51 478.882C457.971 466.692 471.236 452.829 482.829 437.651C483.187 437.173 483.546 436.814 483.785 436.336C495.258 421.039 505.177 404.308 513.184 386.381C513.423 385.903 513.662 385.425 513.901 384.828C521.789 366.901 527.884 347.66 531.708 327.463C531.708 326.865 531.947 326.268 532.067 325.79C532.784 321.607 533.501 317.543 534.099 313.241C536.369 296.868 537.086 280.615 536.489 264.481C536.489 263.883 536.489 263.286 536.489 262.688C535.533 242.611 532.425 222.772 527.286 203.77L528.003 204.009Z" fill="#3A3A47"/>
<path d="M432.993 488.084C431.559 489.16 430.005 490.355 428.451 491.431C430.005 490.355 431.439 489.28 432.993 488.084Z" fill="#3A3A47"/>
<path d="M426.778 492.626C426.778 492.626 427.376 492.148 427.735 491.909C426.181 492.984 424.508 494.179 422.954 495.255L426.778 492.626Z" fill="#3A3A47"/>
<path d="M428.451 491.311C428.451 491.311 427.854 491.67 427.615 491.909C427.854 491.67 428.212 491.55 428.451 491.311Z" fill="#3A3A47"/>
<path d="M537.684 219.306L540.433 236.994C539.716 231.018 538.879 225.162 537.684 219.306Z" fill="#3A3A47"/>
<path d="M536.847 214.645L537.325 216.796C537.206 216.079 537.086 215.362 536.847 214.645Z" fill="#3A3A47"/>
<path d="M537.564 218.47L537.206 216.796C537.325 217.633 537.564 218.47 537.684 219.306V218.47H537.564Z" fill="#3A3A47"/>
</svg>
